<svg width="24" height="24" viewBox="0 0 24 24" fill="none" xmlns="http://www.w3.org/2000/svg">
<path d="M16.4404 7.1001C17.2824 7.10033 17.9999 7.79059 18 8.68994C18 10.8594 17.0166 12.6926 15.5352 14.2104C14.3312 15.444 12.9569 16.2908 12 16.7427C11.0431 16.2908 9.66885 15.444 8.46484 14.2104C6.9834 12.6926 6 10.8594 6 8.68994C6.00008 7.79059 6.71761 7.10033 7.55957 7.1001C7.9924 7.1001 8.38592 7.27767 8.67285 7.58545L8.78906 7.7251C9.54369 8.74106 10.7344 9.34033 12 9.34033C13.2656 9.34033 14.4563 8.74106 15.2109 7.7251C15.5003 7.3355 15.952 7.1001 16.4404 7.1001Z" stroke="#18A0FB" stroke-width="8" stroke-linecap="round" stroke-linejoin="round"/>
</svg>
